<?xml version="1.0" encoding="UTF-8"?>
<svg id="_Слой_1" data-name="Слой 1" xmlns="http://www.w3.org/2000/svg" xmlns:xlink="http://www.w3.org/1999/xlink" viewBox="0 0 1000 1000">
  <defs>
    <style>
      .cls-1 {
        fill: url(#_Безымянный_градиент_12);
        stroke: url(#_Безымянный_градиент_13);
      }

      .cls-1, .cls-2, .cls-3 {
        stroke-miterlimit: 10;
        stroke-width: 14px;
      }

      .cls-2 {
        fill: url(#_Безымянный_градиент_156);
        stroke: url(#_Безымянный_градиент_829);
      }

      .cls-3 {
        fill: url(#_Безымянный_градиент_72);
        stroke: url(#_Безымянный_градиент_829-2);
      }
    </style>
    <linearGradient id="_Безымянный_градиент_156" data-name="Безымянный градиент 156" x1="-541.85" y1="-1537.63" x2="-195.37" y2="-1884.11" gradientTransform="translate(-402.11 1970.78) rotate(45)" gradientUnits="userSpaceOnUse">
      <stop offset="0" stop-color="#8600ea"/>
      <stop offset=".4" stop-color="#6362f1"/>
      <stop offset=".99" stop-color="#2efbfd"/>
    </linearGradient>
    <linearGradient id="_Безымянный_градиент_829" data-name="Безымянный градиент 829" x1="-375.39" y1="-1777.39" x2="-474.78" y2="-1406.48" gradientTransform="translate(-402.11 1970.78) rotate(45)" gradientUnits="userSpaceOnUse">
      <stop offset="0" stop-color="#8638ea"/>
      <stop offset=".02" stop-color="#803eeb"/>
      <stop offset=".25" stop-color="#457ff7"/>
      <stop offset=".36" stop-color="#2e99fd"/>
      <stop offset=".45" stop-color="#40aaf2"/>
      <stop offset=".66" stop-color="#6dd2d8"/>
      <stop offset=".77" stop-color="#7fe2cf"/>
      <stop offset=".86" stop-color="#85ebdb"/>
      <stop offset="1" stop-color="#8ef9ed"/>
    </linearGradient>
    <linearGradient id="_Безымянный_градиент_72" data-name="Безымянный градиент 72" x1="-574.34" y1="-1667.21" x2="-322.58" y2="-1912.92" gradientTransform="translate(-402.11 1970.78) rotate(45)" gradientUnits="userSpaceOnUse">
      <stop offset="0" stop-color="#8638ea"/>
      <stop offset=".02" stop-color="#803eeb"/>
      <stop offset=".19" stop-color="#457ff7"/>
      <stop offset=".27" stop-color="#2e99fd"/>
      <stop offset=".37" stop-color="#40aaf2"/>
      <stop offset=".64" stop-color="#6dd2d8"/>
      <stop offset=".77" stop-color="#7fe2cf"/>
      <stop offset=".86" stop-color="#85ebdb"/>
      <stop offset="1" stop-color="#8ef9ed"/>
    </linearGradient>
    <linearGradient id="_Безымянный_градиент_829-2" data-name="Безымянный градиент 829" x1="-326.05" y1="-1974.17" x2="-446.96" y2="-1522.9" gradientTransform="translate(-402.11 1970.78) rotate(45)" xlink:href="#_Безымянный_градиент_829"/>
    <linearGradient id="_Безымянный_градиент_12" data-name="Безымянный градиент 12" x1="315.03" y1="325.98" x2="375.88" y2="325.98" gradientTransform="translate(163 -67.52)" gradientUnits="userSpaceOnUse">
      <stop offset="0" stop-color="#8638ea"/>
      <stop offset=".03" stop-color="#803eeb"/>
      <stop offset=".38" stop-color="#457ff7"/>
      <stop offset=".54" stop-color="#2e99fd"/>
      <stop offset=".66" stop-color="#4fbaf7"/>
      <stop offset=".83" stop-color="#7ce7ef"/>
      <stop offset=".92" stop-color="#8ef9ed"/>
    </linearGradient>
    <linearGradient id="_Безымянный_градиент_13" data-name="Безымянный градиент 13" x1="300.32" y1="325.98" x2="398.43" y2="325.98" gradientTransform="translate(163 -67.52)" gradientUnits="userSpaceOnUse">
      <stop offset="0" stop-color="#8ef9ed"/>
      <stop offset=".14" stop-color="#85ebdb"/>
      <stop offset=".23" stop-color="#7fe2cf"/>
      <stop offset=".34" stop-color="#6dd2d8"/>
      <stop offset=".55" stop-color="#40aaf2"/>
      <stop offset=".64" stop-color="#2e99fd"/>
      <stop offset=".75" stop-color="#457ff7"/>
      <stop offset=".98" stop-color="#803eeb"/>
      <stop offset="1" stop-color="#8638ea"/>
    </linearGradient>
  </defs>
  <path class="cls-2" d="M660.65,685.67l-98.56,98.56c-.14,.14-.33,.22-.53,.22h-98.38c-.2,0-.39-.08-.53-.22L190.86,512.43c-.14-.14-.22-.33-.22-.53v-48.88c0-.2,.08-.39,.22-.53l245.99-245.99c.47-.47,1.28-.14,1.28,.53v96.88c0,.2-.08,.39-.22,.53l-172.49,172.49c-.29,.29-.29,.76,0,1.06l221.99,221.99c.14,.14,.33,.22,.53,.22h48.88c.2,0,.39-.08,.53-.22l49.06-49.06c.14-.14,.22-.33,.22-.53v-48.88c0-.2-.08-.39-.22-.53l-49.77-49.77c-.14-.14-.33-.22-.53-.22h-47.46c-.2,0-.39,.08-.53,.22l-49.46,49.46c-.29,.29-.76,.29-1.06,0l-48.44-48.44c-.29-.29-.29-.76,0-1.06l73.5-73.5c.14-.14,.33-.22,.53-.22h98.38c.2,0,.39,.08,.53,.22l98.56,98.56c.14,.14,.22,.33,.22,.53v98.38c0,.2-.08,.39-.22,.53Z"/>
  <path class="cls-3" d="M809.14,537.18l-24.31,24.31c-.14,.14-.33,.22-.53,.22h-98.38c-.2,0-.39-.08-.53-.22l-148.05-148.05c-.14-.14-.33-.22-.53-.22h-48.88c-.2,0-.39,.08-.53,.22l-123,123c-.29,.29-.76,.29-1.06,0l-48.44-48.44c-.29-.29-.29-.76,0-1.06l147.75-147.75c.14-.14,.33-.22,.53-.22h98.38c.2,0,.39,.08,.53,.22l160.53,160.53c.14,.14,.33,.22,.53,.22h23.48c.41,0,.75-.33,.75-.74l-.03-23.95c0-.2-.08-.39-.22-.53l-160.28-160.28c-.14-.14-.22-.33-.22-.53v-96.88c0-.67,.8-1,1.28-.53l221.24,221.24c.14,.14,.22,.33,.22,.53v98.38c0,.2-.08,.39-.22,.53Z"/>
  <path class="cls-1" d="M554.22,258.99l-41.31,42.17c-.29,.3-.77,.3-1.07,0l-41.31-42.17c-.28-.29-.28-.76,0-1.05l41.31-42.17c.29-.3,.77-.3,1.07,0l41.31,42.17c.28,.29,.28,.76,0,1.05Z"/>
</svg>